<?xml version="1.0" encoding="UTF-8"?>
<svg id="Layer_2" data-name="Layer 2" xmlns="http://www.w3.org/2000/svg" viewBox="0 0 466.33 32.69">
  <defs>
    <style>
      .cls-1 {
        fill: #fff;
      }
    </style>
  </defs>
  <g id="Layer_1-2" data-name="Layer 1">
    <g>
      <path class="cls-1" d="M337.26,32.57l-18.83.06-1.59-8.77,5.47-.73-1.84-12.84c-2.07-1.12-5.88.88-5.9,3.14l-.15,19.11-13.42.03c.37-18.71.68-14.96-4.9-32.37l13.61-.17,2.67,4.32C313.53,1.6,315.63-.02,318.67,0l14.49.12,4.1,32.46Z"/>
      <path class="cls-1" d="M273.79.08h-35.03l1.23,9.87,3.45.26c-.95,1.69-1.84,4.33-1.57,6.43l2.07,15.97,33.85-.07L273.79.08ZM256.34,24.13l-1.32-13.4c1.46-.93,5.06-.97,6.45.04l1.77,13.42-6.9-.06Z"/>
      <path class="cls-1" d="M431.78,32.22c-5.23.38-10.38.48-15.05.23l-10.2-11.91.69,11.98-12.99.09c-.78-4.59-1.59-9.21-1-14.28.26-2.24,4.12-3.97,6.68-5.35L388.78.21l14.86-.16,9.52,10.96-.85-10.97,13.71.13.87,9.18c.4,4.3-2.8,7.53-6.52,9.71l11.42,13.16Z"/>
      <polygon class="cls-1" points="466.33 32.47 452.68 32.69 449.8 10.09 429.79 10.04 428.9 .03 462.46 .11 466.33 32.47"/>
      <path class="cls-1" d="M382.84,11.36l2.72,21.12-13.78.17-2.05-16.07c-.18-1.4.81-4.1,1.51-5.65l-14.35-.03-1.29-10.85h30.32l1.4,10.67-4.47.65Z"/>
      <polygon class="cls-1" points="356.75 32.43 342.97 32.63 340.27 11.03 336.65 10.42 335.6 .14 352.63 .04 356.75 32.43"/>
      <path class="cls-1" d="M32.63,32.28c-1.89.43-5.43.55-6.43-.58l-13.57-15.34c-4.21,2.95-4.3,7.39-4.31,12.14v3.51c0,.86-2.67.63-3.75.56-1.99-.15-3.05-14.52,5.09-19.03L0,3.06c2.14-.48,4.56-.63,6.22-.18l13.61,14.88c3.16-4.49,3.18-9.24,2.76-14.68.86-.51,3.99-.54,4.94.04.71,6.37-.03,12.87-5.15,17.16l10.25,12.01Z"/>
      <polygon class="cls-1" points="296.02 20.79 282.23 20.98 281.12 11.42 277.34 10.59 276.41 .21 293.36 .03 296.02 20.79"/>
      <path class="cls-1" d="M62.68,32.54l-25.66.1-.24-4.12,12.45-.18c2.49-.03,4.98-2.14,4.65-4.81l-2.12-16.83-16.65-.03c-.9,0-1.48-2.24-1.74-4.03l23.1-.12,2.29,17.64c.37,2.85-1.05,6.11-2.7,8.06l6.24.68c.88.09.83,3.3.38,3.65Z"/>
      <path class="cls-1" d="M220.04,32.32l-5.16.16-3.17-25.75h-18.24c-1.89,0-3.19-1.2-3.26-4.13l26.09-.05,3.75,29.77Z"/>
      <polygon class="cls-1" points="447.3 32.58 433.36 32.63 431.53 15.2 445.18 15.13 447.3 32.58"/>
      <path class="cls-1" d="M93.93,32.27l-5.03.2-3.1-25.76-19.96-.09c-1,0-1.58-3.52-.58-4.04l25.15.03,3.53,29.67Z"/>
      <path class="cls-1" d="M179.3,10.74l2.75,21.73-5.16.06-2.29-18.47c-.33-2.65.61-4.96,2.41-7.34l-18.1-.04-.23-4.11,24.14-.03c.63,0,1.79,1.59,1.79,2.21-.02,2.95-5.82,2.02-5.31,6Z"/>
      <path class="cls-1" d="M139.2,32.36l-5.2.14-1.9-17.46c-.48-4.34-2.96-7.51-7.84-7.51h-9.97c-1.17-.09-1.69-3.65-1.2-4.85l12.22-.13c14.35-.15,11.83,19.89,13.89,29.81Z"/>
      <path class="cls-1" d="M155.71,32.3l-5.11.18-3.05-25.66-5.66-.32c-.98-.05-.98-3.75-.03-3.88l10.2-.03,3.64,29.71Z"/>
      <path class="cls-1" d="M74.26,31.71c-.09,1.22-4.41,1.15-5.15.05l-1.78-15.84c1.2-.28,3.22-.44,4.86-.41l2.06,16.19Z"/>
      <path class="cls-1" d="M200.33,31.65c-.73.95-3.44,1.12-5.1.71l-1.87-15.84c-.14-1.21,3.9-1.62,4.87-.89l2.09,16.03Z"/>
    </g>
  </g>
</svg>
